<?xml version="1.0" encoding="utf-8"?>
<!-- Generator: Adobe Illustrator 21.0.0, SVG Export Plug-In . SVG Version: 6.00 Build 0)  -->
<svg version="1.1" id="Capa_1" xmlns="http://www.w3.org/2000/svg" xmlns:xlink="http://www.w3.org/1999/xlink" x="0px" y="0px"
	 viewBox="0 0 30 30" overflow="scroll" style="enable-background:new 0 0 30 30;" xml:space="preserve" width="30" height="30" >
<style type="text/css">
	.st0{fill:#164F84;}
</style>
<path class="st0" d="M25.2,18.4v8.6c0,0.8-0.5,1.4-1.2,1.4h-5.9c-0.3,0-0.6-0.3-0.6-0.7V21c0-0.4-0.3-0.7-0.6-0.7h-3.7
	c-0.3,0-0.6,0.3-0.6,0.7v6.8c0,0.4-0.3,0.7-0.6,0.7H6c-0.7,0-1.2-0.6-1.2-1.4v-8.6c0-0.2,0.1-0.4,0.2-0.6l9.6-9.3
	c0.2-0.2,0.6-0.2,0.8,0l9.6,9.3C25.1,18,25.2,18.2,25.2,18.4L25.2,18.4z M29.5,14.7l-4.3-4.2V2.2c0-0.4-0.3-0.7-0.6-0.7h-2.9
	c-0.3,0-0.6,0.3-0.6,0.7v4.4l-4.6-4.4c-0.9-0.9-2.2-0.9-3.1,0L0.5,14.7c-0.3,0.3-0.3,0.7-0.1,1l1.3,1.9c0.2,0.3,0.6,0.3,0.9,0.1
	L14.6,6c0.2-0.2,0.6-0.2,0.8,0l12,11.7c0.3,0.3,0.6,0.2,0.9-0.1l1.3-1.9C29.8,15.4,29.7,15,29.5,14.7z"/>
</svg>
