<?xml version="1.0" encoding="utf-8"?>
<!-- Generator: Adobe Illustrator 21.0.0, SVG Export Plug-In . SVG Version: 6.00 Build 0)  -->
<svg version="1.1" id="Capa_1" xmlns="http://www.w3.org/2000/svg" xmlns:xlink="http://www.w3.org/1999/xlink" x="0px" y="0px"
	 viewBox="0 0 30 30" overflow="scroll" style="enable-background:new 0 0 30 30;" xml:space="preserve" width="30" height="30">
<style type="text/css">
	.st0{fill:#342983;}
</style>
<path class="st0" d="M18.6,16.1h10.8v7.3c0,1.3-1.2,2.4-2.7,2.4H3.3c-1.5,0-2.7-1.1-2.7-2.4v-7.3h10.8v1c0,0.3,0.3,0.6,0.7,0.6h5.8
	c0.4,0,0.7-0.3,0.7-0.6V16.1z M29.4,10.4v4.1H0.6v-4.1C0.6,9,1.8,8,3.3,8h4.5V5.5c0-1.3,1.2-2.4,2.7-2.4h9c1.5,0,2.7,1.1,2.7,2.4V8
	h4.5C28.2,8,29.4,9,29.4,10.4z M18.6,6.3h-7.2V8h7.2V6.3z"/>
</svg>
