<?xml version="1.0" encoding="utf-8"?>
<!-- Generator: Adobe Illustrator 21.0.0, SVG Export Plug-In . SVG Version: 6.00 Build 0)  -->
<svg version="1.1" id="Capa_1" xmlns="http://www.w3.org/2000/svg" xmlns:xlink="http://www.w3.org/1999/xlink" x="0px" y="0px"
	 viewBox="0 0 30 30"  overflow="scroll" style="enable-background:new 0 0 30 30;" xml:space="preserve" width="30" height="30">
<style type="text/css">
	.st0{fill:#1E8B42;}
</style>
<path class="st0" d="M29.8,6.3L26.7,9c-0.3,0.3-0.7,0.4-1.1,0.4H2.2C1.4,9.4,0.7,8.8,0.7,8V3.5c0-0.8,0.7-1.4,1.5-1.4h10.2V1.7
	c0-0.8,0.7-1.4,1.5-1.4h2c0.8,0,1.5,0.6,1.5,1.4v0.5h8c0.4,0,0.8,0.1,1.1,0.4l3.1,2.7C30.1,5.6,30.1,6,29.8,6.3L29.8,6.3z
	 M12.4,21.2V28c0,0.8,0.7,1.4,1.5,1.4h2c0.8,0,1.5-0.6,1.5-1.4v-6.8H12.4z M27.8,13H17.6v-2.7h-5.1V13h-8c-0.4,0-0.8,0.1-1.1,0.4
	l-3.1,2.7c-0.3,0.3-0.3,0.7,0,1l3.1,2.7c0.3,0.3,0.7,0.4,1.1,0.4h23.4c0.8,0,1.5-0.6,1.5-1.4v-4.5C29.3,13.6,28.6,13,27.8,13z"/>
</svg>
