<?xml version="1.0" encoding="utf-8"?>
<!-- Generator: Adobe Illustrator 21.0.0, SVG Export Plug-In . SVG Version: 6.00 Build 0)  -->
<svg version="1.1" id="Capa_1" xmlns="http://www.w3.org/2000/svg" xmlns:xlink="http://www.w3.org/1999/xlink" x="0px" y="0px"
	 viewBox="0 0 30 30"  overflow="scroll" style="enable-background:new 0 0 30 30;" xml:space="preserve" width="30" height="30">
<style type="text/css">
	.st0{fill:#369ECC;}
	.st1{fill:#FFFFFF;}
</style>
<path class="st0" d="M27.8,9.5l-8.2,4.9v-3.8c0-1-1.2-1.7-2.2-1.1l-8.2,4.9V3.6c0-0.7-0.6-1.3-1.4-1.3H1.4C0.6,2.3,0,2.8,0,3.6v22.1
	C0,26.4,0.6,27,1.4,27h27.2c0.8,0,1.4-0.6,1.4-1.3v-15C30,9.6,28.8,9,27.8,9.5z"/>
<path class="st1" d="M10.9,22.7H7.3c-0.4,0-0.8-0.3-0.8-0.8v-2.6c0-0.4,0.3-0.8,0.8-0.8h3.6c0.4,0,0.8,0.3,0.8,0.8v2.6
	C11.6,22.4,11.3,22.7,10.9,22.7z"/>
<path class="st1" d="M18,22.7h-3.6c-0.4,0-0.8-0.3-0.8-0.8v-2.6c0-0.4,0.3-0.8,0.8-0.8H18c0.4,0,0.8,0.3,0.8,0.8v2.6
	C18.7,22.4,18.4,22.7,18,22.7z"/>
<path class="st1" d="M25,22.7h-3.6c-0.4,0-0.8-0.3-0.8-0.8v-2.6c0-0.4,0.3-0.8,0.8-0.8H25c0.4,0,0.8,0.3,0.8,0.8v2.6
	C25.7,22.4,25.4,22.7,25,22.7z"/>
</svg>
