<svg id="d4e97df2-4c87-475a-bbbf-c1964b9e450e" data-name="Capa 1" xmlns="http://www.w3.org/2000/svg" viewBox="0 0 29.88 32"><defs><style>.b5a8a062-2774-4458-bd58-7b7cbe40231d{fill:#323c8c;}</style></defs><title>terreno</title><path class="b5a8a062-2774-4458-bd58-7b7cbe40231d" d="M25,6.53l-3.08,3a1.54,1.54,0,0,1-1.08.44H-2.4A1.51,1.51,0,0,1-3.92,8.5v-5A1.51,1.51,0,0,1-2.4,2H7.77V1.5A1.51,1.51,0,0,1,9.3,0h2a1.51,1.51,0,0,1,1.53,1.5V2h8a1.54,1.54,0,0,1,1.08.44l3.08,3a.74.74,0,0,1,0,1.06ZM7.77,23v7.5A1.51,1.51,0,0,0,9.3,32h2a1.51,1.51,0,0,0,1.53-1.5V23ZM23,14H12.85V11H7.77v3h-8a1.54,1.54,0,0,0-1.08.44l-3.08,3a.74.74,0,0,0,0,1.06l3.08,3A1.54,1.54,0,0,0-.24,22H23a1.51,1.51,0,0,0,1.53-1.5v-5A1.51,1.51,0,0,0,23,14Z" transform="translate(4.63)"/></svg>