<?xml version="1.0" encoding="utf-8"?>
<!-- Generator: Adobe Illustrator 21.0.0, SVG Export Plug-In . SVG Version: 6.00 Build 0)  -->
<svg version="1.1" id="Capa_1" xmlns="http://www.w3.org/2000/svg" xmlns:xlink="http://www.w3.org/1999/xlink"  
	x="0px" y="0px" viewBox="0 0 32 32" overflow="scroll" xml:space="preserve" width="32" height="32">
<style type="text/css">
	.st0{fill:#E81E25;stroke:#000000;stroke-miterlimit:10;}
</style>
<g>
	<path id="svg_2" class="st0" d="M16,29c-0.6-3.2-1.7-5.8-3-8.2c-1-1.8-2.1-3.5-3.1-5.2c-0.3-0.6-0.6-1.2-1-1.8
		c-0.7-1.2-1.2-2.6-1.2-4.5c0-1.8,0.5-3.2,1.2-4.4C10.1,3,12.1,1.4,14.7,1c2.1-0.3,4.2,0.2,5.6,1.1c1.2,0.7,2.1,1.7,2.8,2.8
		c0.7,1.2,1.2,2.6,1.2,4.4c0,0.9-0.1,1.8-0.3,2.5c-0.2,0.7-0.5,1.3-0.8,2c-0.6,1.3-1.3,2.4-2,3.6C18.9,20.7,16.9,24.2,16,29z"/>
	<ellipse id="svg_4" cx="16" cy="9.3" rx="2.9" ry="3.1"/>
</g>
</svg>
